<svg xmlns="http://www.w3.org/2000/svg"
     viewBox="0 0 800 660"
     role="img" aria-label="Europe map showing Dimension3D maker network cities">
  <style>
    .country        { fill: #e2e8f0; stroke: #94a3b8; stroke-width: 0.8; stroke-linejoin: round; }
    .city-live      { fill: #25d366; }
    .city-expanding { fill: #f59e0b; opacity: 0.85; }
    .city-pulse     { fill: none; stroke: #25d366; stroke-width: 1.5; opacity: 0.4; }
  </style>
  <g class="countries" fill-rule="evenodd">
    <path d="M761.5,157.4L712.7,162.3L714.6,149.9L734.7,137.9L759.4,143.0L761.5,157.4Z"/>
    <path d="M590.3,16.2L573.4,51.2L563.7,34.5L535.3,65.9L515.8,71.7L496.6,56.7L493.6,-9.6L592.8,-8.0L590.3,16.2Z"/>
    <path d="M498.8,314.4L524.5,320.4L511.8,358.3L498.2,359.9L484.1,381.5L483.2,393.9L492.4,390.1L498.5,402.3L502.6,420.5L495.6,428.6L499.8,449.9L510.3,453.7L507.7,465.5L489.0,480.2L450.0,470.5L420.2,476.9L416.5,493.1L392.7,494.2L371.4,479.3L363.4,484.2L328.2,466.7L321.9,454.9L334.4,440.3L345.9,386.9L319.8,339.4L294.0,323.8L296.0,303.8L320.1,302.4L348.9,314.5L348.1,282.9L362.9,297.1L406.6,281.4L414.4,259.7L430.0,255.9L431.5,265.7L439.5,266.9L457.8,292.5L467.0,291.1L498.8,314.4ZM546.5,485.0L549.8,508.4L542.8,529.4L533.5,523.7L529.1,505.3L546.5,485.0Z"/>
    <path d="M522.1,769.5L503.3,746.5L501.8,726.1L516.3,711.4L523.8,649.6L548.0,639.0L563.4,642.3L562.7,656.0L581.4,645.8L572.1,664.4L572.0,677.0L579.9,683.6L577.1,707.0L562.2,720.7L566.6,735.4L578.5,735.8L593.4,752.6L592.6,769.8L522.1,769.5Z"/>
    <path d="M299.1,747.4L284.1,676.4L307.5,665.0L369.5,648.7L455.0,653.0L476.3,643.5L523.8,649.6L516.3,711.4L501.8,726.1L503.3,746.5L522.3,769.7L299.1,747.4Z"/>
    <path d="M573.4,51.2L590.3,16.2L592.8,-8.0L658.3,-12.6L679.1,10.3L670.2,42.4L656.2,50.3L655.1,96.7L648.8,123.0L630.1,121.7L622.7,143.9L604.7,146.1L573.4,51.2Z"/>
    <path d="M845.2,214.0L803.6,217.6L788.1,229.3L778.1,205.8L786.9,198.4L775.5,166.4L805.8,149.9L806.0,133.9L816.5,122.5L812.2,110.8L818.9,105.3L845.2,214.0Z"/>
    <path d="M863.4,303.6L831.4,328.3L798.5,324.6L791.7,331.8L778.0,319.1L787.6,300.6L781.0,289.3L800.7,259.2L788.1,229.3L816.3,214.3L845.2,214.0L863.4,303.6Z"/>
    <path d="M770.1,158.8L786.9,198.4L778.1,205.8L801.1,251.3L781.0,289.3L787.6,300.6L765.0,292.1L734.4,303.6L724.3,295.1L717.5,299.7L706.6,285.8L693.4,285.6L690.9,277.2L666.7,277.8L667.1,270.2L645.2,260.6L626.1,210.4L630.3,202.8L625.6,189.1L679.1,154.6L695.3,157.5L697.3,163.9L770.1,158.8Z"/>
    <path d="M686.2,350.5L675.8,351.5L679.9,357.1L672.0,380.1L646.4,388.8L603.5,381.7L599.0,372.3L578.5,382.7L549.0,373.2L556.8,360.2L566.2,367.7L568.8,360.5L598.3,356.2L613.2,362.2L611.5,339.7L623.7,323.1L637.6,331.2L653.3,316.9L685.0,326.4L686.2,350.5Z"/>
    <path d="M789.2,324.8L791.7,331.8L781.5,339.4L767.2,379.2L720.6,400.8L675.2,375.2L679.9,357.1L675.8,351.5L686.2,350.5L686.5,339.3L703.6,347.6L754.1,317.3L789.2,324.8Z"/>
    <path d="M860.0,308.5L865.8,302.4L867.8,311.5L860.0,308.5Z"/>
    <path d="M891.3,416.5L866.1,434.4L814.3,440.7L802.6,426.4L806.4,421.1L783.5,419.6L780.4,408.7L752.8,386.5L767.2,379.2L781.5,339.4L798.5,324.6L831.4,328.3L852.5,310.2L866.1,309.8L891.3,416.5Z"/>
    <path d="M816.5,122.5L806.0,133.9L805.8,149.9L775.5,166.4L761.5,157.4L759.4,143.0L734.7,137.9L727.8,115.6L743.7,104.5L783.2,96.0L812.2,110.8L816.5,122.5Z"/>
    <path d="M812.2,110.8L783.2,96.0L743.7,104.5L727.8,115.6L725.1,95.1L729.5,77.0L741.5,65.4L756.9,83.5L768.5,80.6L767.0,59.4L778.1,52.1L807.5,59.3L818.9,105.3L812.2,110.8Z"/>
    <path d="M807.5,59.3L778.1,52.1L767.0,59.4L765.3,43.2L760.8,47.7L749.9,39.9L745.6,24.6L777.6,6.0L794.1,6.7L807.5,59.3Z"/>
    <path d="M630.3,202.8L626.1,210.4L645.2,260.6L633.0,261.1L598.1,286.0L603.7,305.5L623.7,323.1L611.5,339.7L613.2,362.2L598.3,356.2L568.8,360.5L566.2,367.7L531.5,353.0L511.8,358.3L524.5,320.4L490.7,306.8L490.7,241.3L500.9,241.8L505.6,231.7L511.6,191.8L528.1,196.9L539.4,183.6L535.5,157.7L557.5,157.4L557.8,168.0L573.9,174.3L573.9,184.0L598.9,170.7L617.5,180.8L630.3,202.8Z"/>
    <path d="M814.3,440.7L866.1,434.4L891.3,416.5L902.9,470.8L886.9,482.1L889.3,495.5L871.4,501.9L855.4,495.3L825.3,507.7L821.1,490.1L809.6,483.2L817.9,457.1L803.1,437.5L806.9,430.6L814.3,440.7Z"/>
    <path d="M923.0,664.2L891.4,673.0L862.9,668.4L865.3,656.2L878.8,663.0L924.3,655.8L923.0,664.2ZM787.7,527.4L855.4,495.3L871.4,501.9L889.3,495.5L886.9,482.1L898.1,487.0L891.0,509.2L843.8,522.4L860.7,534.9L839.3,543.4L826.2,531.4L823.2,538.0L842.8,564.1L835.8,571.4L861.4,587.5L864.2,602.6L843.2,599.1L851.7,611.7L838.4,616.9L850.3,639.1L835.7,641.9L816.1,633.1L798.9,595.4L773.8,562.9L787.7,527.4Z"/>
    <path d="M910.1,578.0L916.2,555.0L900.5,545.1L913.7,522.2L927.3,588.6L910.1,578.0ZM902.9,470.8L911.6,511.8L900.7,525.8L891.0,509.2L898.1,487.0L886.9,482.1L902.9,470.8Z"/>
    <path d="M788.3,534.6L773.8,562.9L756.2,548.0L754.4,507.8L748.1,495.5L755.3,481.1L772.7,491.7L773.9,510.9L788.3,534.6Z"/>
    <path d="M689.1,386.9L704.3,397.2L727.2,395.9L740.1,412.8L733.9,424.0L674.0,419.7L670.8,431.4L712.9,476.7L731.7,485.0L730.0,489.9L678.7,466.7L660.6,447.9L664.5,445.5L653.9,425.5L641.2,422.0L635.8,434.1L629.7,425.2L630.3,415.3L661.4,414.7L668.3,392.6L689.1,386.9Z"/>
    <path d="M551.9,366.5L549.0,373.2L567.1,378.9L565.6,390.1L543.3,391.3L539.0,402.2L526.7,398.5L506.5,408.5L492.4,390.1L483.2,393.9L484.1,381.5L498.2,359.9L531.5,353.0L551.9,366.5Z"/>
    <path d="M492.3,294.9L490.7,306.8L481.7,304.5L484.5,289.3L492.3,294.9Z"/>
    <path d="M489.1,288.5L484.5,289.3L481.7,304.5L467.0,291.1L457.8,292.5L439.5,266.9L431.5,265.7L430.0,255.9L472.8,250.6L492.1,270.2L489.1,288.5Z"/>
    <path d="M510.8,206.8L500.9,241.8L490.7,241.3L492.1,270.2L472.8,250.6L444.2,251.8L453.7,245.1L471.5,206.0L494.6,196.0L508.2,197.4L510.8,206.8Z"/>
    <path d="M172.9,466.8L190.6,460.0L192.6,474.3L219.9,478.1L222.8,492.8L211.9,497.9L199.8,534.3L190.4,534.5L195.4,552.4L185.9,568.6L191.6,578.2L167.2,607.1L145.0,600.8L154.5,563.9L143.1,547.7L171.2,497.9L172.9,466.8Z"/>
    <path d="M177.3,592.9L191.6,578.2L185.9,568.6L195.4,552.4L190.4,534.5L199.8,534.3L211.9,497.9L222.8,492.8L219.9,478.1L192.6,474.3L190.6,460.0L172.9,466.8L178.4,448.1L173.3,434.4L205.2,422.2L321.9,454.9L328.2,466.7L363.4,484.2L371.4,479.3L392.7,494.2L416.5,493.1L416.2,508.9L395.1,525.1L368.1,527.8L339.9,571.0L346.3,587.5L332.5,597.9L325.6,614.8L308.6,617.8L290.3,636.1L241.8,627.5L216.4,642.7L206.0,638.3L196.5,610.9L177.2,602.2L177.3,592.9Z"/>
    <path d="M297.1,178.5L279.3,199.6L246.4,208.1L224.4,197.8L245.1,173.7L244.4,144.4L285.8,119.8L285.3,134.9L278.6,148.4L298.8,158.7L297.1,178.5Z"/>
    <path d="M578.5,382.7L599.0,372.3L603.5,381.7L630.7,387.6L634.5,412.6L619.0,409.3L603.7,419.6L603.0,441.0L609.9,454.6L629.0,467.6L640.2,489.7L664.0,510.2L680.0,508.9L685.5,514.5L680.1,520.4L734.4,547.7L734.2,562.6L721.3,551.2L702.7,548.5L695.3,566.8L711.4,575.5L710.1,589.9L701.3,592.3L691.5,616.5L682.6,619.2L689.8,589.9L673.0,561.6L583.0,502.7L569.1,487.1L562.7,460.2L536.9,447.9L507.7,465.5L510.3,453.7L499.8,449.9L498.5,402.3L506.5,408.5L526.7,398.5L539.0,402.2L543.3,391.3L565.6,390.1L567.1,378.9L578.5,382.7ZM678.5,610.8L672.0,655.0L612.0,631.0L614.6,617.0L678.5,610.8ZM542.4,534.0L554.8,553.4L551.7,589.4L533.1,596.6L525.1,589.2L520.4,540.7L542.4,534.0Z"/>
    <path d="M557.5,157.4L535.5,157.7L529.5,142.4L529.8,114.3L537.0,98.9L567.3,82.1L562.5,105.1L572.6,116.9L553.3,144.0L557.5,157.4ZM600.5,139.4L591.8,161.9L575.0,146.8L572.7,135.5L595.1,125.9L600.5,139.4Z"/>
    <path d="M298.8,158.7L278.6,148.4L285.3,134.9L285.8,119.8L298.8,121.8L311.4,142.2L298.8,158.7ZM345.6,181.3L350.9,166.1L343.3,147.1L323.3,130.5L331.5,119.6L328.1,111.2L317.1,122.1L322.1,96.1L317.8,80.7L329.6,54.2L345.5,34.9L373.6,40.4L352.5,66.6L383.8,68.7L376.1,90.1L358.2,111.9L373.5,116.4L382.7,153.6L392.8,159.6L401.4,203.3L420.7,211.0L416.7,228.2L407.2,235.1L412.2,250.0L395.1,262.4L341.7,261.7L334.7,254.9L321.0,265.5L305.7,259.3L291.5,267.1L283.6,259.8L314.3,236.7L330.5,233.8L305.1,224.1L302.7,212.4L321.6,207.6L315.6,191.3L322.3,174.3L345.6,181.3Z"/>
    <path d="M630.7,387.6L675.2,375.2L682.8,384.1L668.3,392.6L661.4,414.7L630.3,415.3L634.5,412.6L630.7,387.6Z"/>
    <path d="M787.2,-20.1L735.7,8.1L710.6,-11.9L710.2,-19.6L783.4,-34.6L787.2,-20.1Z"/>
    <path d="M783.4,299.7L774.6,322.5L754.1,317.3L703.6,347.6L686.5,339.3L683.9,330.0L711.0,298.9L724.3,295.1L734.4,303.6L765.0,292.1L783.4,299.7Z"/>
    <path d="M633.0,261.1L667.1,270.2L666.7,277.8L676.7,282.6L678.6,275.3L690.9,277.2L693.4,285.6L706.6,285.8L716.3,298.2L685.0,326.4L653.3,316.9L637.6,331.2L603.7,305.5L598.1,286.0L633.0,261.1Z"/>
    <path d="M284.1,676.4L296.9,751.3L110.5,714.2L129.5,698.3L173.3,684.4L203.3,645.2L219.5,648.6L230.9,662.6L284.1,676.4Z"/>
    <path d="M593.4,752.6L621.0,761.1L665.4,767.0L592.6,769.8L593.4,752.6ZM805.2,753.4L827.4,740.9L862.4,744.7L805.2,753.4Z"/>
    <path d="M712.9,476.7L670.8,431.4L674.0,419.7L740.9,423.0L737.4,435.6L748.1,444.8L746.7,457.9L733.0,469.7L731.7,485.0L712.9,476.7Z"/>
    <path d="M821.1,490.1L825.3,507.7L800.9,523.0L787.7,527.4L773.9,510.9L778.1,495.5L789.4,489.5L809.6,483.2L821.1,490.1Z"/>
    <path d="M727.2,395.9L752.8,386.5L780.4,408.7L783.5,419.6L806.4,421.1L803.1,437.5L817.9,457.1L812.3,478.8L793.8,487.8L796.0,475.3L774.7,462.3L765.2,476.3L742.2,459.7L748.1,444.8L737.4,435.6L740.9,423.0L733.9,424.0L740.1,412.8L727.2,395.9Z"/>
    <path d="M766.6,473.8L748.1,495.5L750.5,504.0L730.0,489.9L733.0,469.7L742.2,459.7L766.6,473.8Z"/>
    <path d="M777.9,501.2L762.3,482.9L771.3,464.3L796.0,475.3L793.8,487.8L777.9,501.2Z"/>
  </g>
  <g class="cities">
    <circle class="city-pulse" cx="397.1" cy="520.8" r="10"/>
    <circle class="city-live" cx="397.1" cy="520.8" r="5" data-city="Barcelona" data-live="true"/>
    <circle class="city-expanding" cx="272.8" cy="529.7" r="4.5" data-city="Madrid"/>
    <circle class="city-expanding" cx="338.3" cy="566.4" r="4.5" data-city="Valencia"/>
    <circle class="city-expanding" cx="151.0" cy="550.3" r="4.5" data-city="Lisbon"/>
    <circle class="city-expanding" cx="420.7" cy="318.0" r="4.5" data-city="Paris"/>
    <circle class="city-expanding" cx="473.3" cy="226.0" r="4.5" data-city="Amsterdam"/>
    <circle class="city-expanding" cx="615.5" cy="223.6" r="4.5" data-city="Berlin"/>
    <circle class="city-expanding" cx="587.7" cy="344.5" r="4.5" data-city="Munich"/>
    <circle class="city-expanding" cx="543.1" cy="418.1" r="4.5" data-city="Milan"/>
  </g>
</svg>
